<svg xmlns="http://www.w3.org/2000/svg" width="104" height="104" viewBox="0 0 104 104"><path d="M576,1207 C602.509668,1207 624,1185.50967 624,1159 C624,1132.49033 602.509668,1111 576,1111 C549.490332,1111 528,1132.49033 528,1159 C528,1170.48468 532.044438,1181.34049 539.298283,1189.93686 C540.010625,1190.78105 539.903749,1192.04286 539.059567,1192.7552 C538.215386,1193.46754 536.953574,1193.36067 536.241232,1192.51648 C528.384008,1183.20506 524,1171.4378 524,1159 C524,1130.28119 547.281193,1107 576,1107 C604.718807,1107 628,1130.28119 628,1159 C628,1187.71881 604.718807,1211 576,1211 C564.484162,1211 553.532959,1207.24419 544.556558,1200.4197 L543.483871,1199.60417 L558.369999,1144.7564 C558.654557,1143.70794 559.483705,1142.89525 560.537651,1142.63177 L600.359412,1132.67633 C600.842057,1132.55566 601.347133,1132.55693 601.829169,1132.68 C603.434524,1133.08988 604.40365,1134.72355 603.993772,1136.3289 L594.474071,1173.6144 C594.198009,1174.69564 593.344608,1175.5343 592.258717,1175.79149 L560.914714,1183.21507 C559.839879,1183.46963 558.762187,1182.80468 558.507621,1181.72984 C558.253055,1180.65501 558.918014,1179.57731 559.992849,1179.32275 L590.748082,1172.03861 L599.70345,1136.96342 L562.076734,1146.3701 L548.055368,1198.03167 C556.13268,1203.82653 565.823102,1207 576,1207 Z" transform="translate(-524 -1107)"/></svg>